<svg width="75" height="75" viewBox="0 0 75 75" fill="none" xmlns="http://www.w3.org/2000/svg">
<rect width="75" height="75" rx="16" fill="white"/>
<rect x="0.5" y="0.5" width="74" height="74" rx="15.5" stroke="black" stroke-opacity="0.1"/>
<path d="M27.7502 59.1667C25.6558 59.1667 23.8683 58.4264 22.3877 56.9459C20.9071 55.4653 20.1669 53.6778 20.1669 51.5834V23.4167C20.1669 21.3223 20.9071 19.5348 22.3877 18.0542C23.8683 16.5737 25.6558 15.8334 27.7502 15.8334H53.3335C54.162 15.8334 54.8335 16.5049 54.8335 17.3334V47.8334C54.8335 48.1095 54.6085 48.3289 54.3351 48.3674C53.645 48.4646 53.0442 48.7696 52.5325 49.2824C51.9013 49.915 51.585 50.682 51.5835 51.5834C51.5821 52.4847 51.8984 53.2524 52.5325 53.8865C53.0458 54.3998 53.6461 54.7044 54.3334 54.8003C54.6075 54.8386 54.8335 55.0582 54.8335 55.335V58.6667C54.8335 58.9428 54.6097 59.1667 54.3335 59.1667H27.7502ZM28.8335 41.8334C28.8335 43.03 29.8036 44 31.0002 44V44C32.1968 44 33.1669 43.03 33.1669 41.8334V22.3334C33.1669 21.1368 32.1968 20.1667 31.0002 20.1667V20.1667C29.8036 20.1667 28.8335 21.1368 28.8335 22.3334V41.8334ZM27.7502 54.8334H47.1961C47.5551 54.8334 47.7982 54.4655 47.6827 54.1256C47.589 53.8498 47.5084 53.5715 47.4409 53.2907C47.3152 52.7678 47.2516 52.1987 47.2502 51.5834C47.2502 51.0056 47.3044 50.4459 47.4127 49.9042C47.4688 49.6239 47.5442 49.3484 47.6389 49.0778C47.7617 48.727 47.517 48.3334 47.1454 48.3334H27.7502C26.8113 48.3334 26.0349 48.6497 25.421 49.2824C24.8071 49.915 24.5002 50.682 24.5002 51.5834C24.5002 52.5223 24.8071 53.2987 25.421 53.9125C26.0349 54.5264 26.8113 54.8334 27.7502 54.8334Z" fill="#1D1D1F"/>
<path d="M27.7502 59.1667C25.6558 59.1667 23.8683 58.4264 22.3877 56.9459C20.9071 55.4653 20.1669 53.6778 20.1669 51.5834V23.4167C20.1669 21.3223 20.9071 19.5348 22.3877 18.0542C23.8683 16.5737 25.6558 15.8334 27.7502 15.8334H53.3335C54.162 15.8334 54.8335 16.5049 54.8335 17.3334V47.8334C54.8335 48.1095 54.6085 48.3289 54.3351 48.3674C53.645 48.4646 53.0442 48.7696 52.5325 49.2824C51.9013 49.915 51.585 50.682 51.5835 51.5834C51.5821 52.4847 51.8984 53.2524 52.5325 53.8865C53.0458 54.3998 53.6461 54.7044 54.3334 54.8003C54.6075 54.8386 54.8335 55.0582 54.8335 55.335V58.6667C54.8335 58.9428 54.6097 59.1667 54.3335 59.1667H27.7502ZM28.8335 41.8334C28.8335 43.03 29.8036 44 31.0002 44V44C32.1968 44 33.1669 43.03 33.1669 41.8334V22.3334C33.1669 21.1368 32.1968 20.1667 31.0002 20.1667V20.1667C29.8036 20.1667 28.8335 21.1368 28.8335 22.3334V41.8334ZM27.7502 54.8334H47.1961C47.5551 54.8334 47.7982 54.4655 47.6827 54.1256C47.589 53.8498 47.5084 53.5715 47.4409 53.2907C47.3152 52.7678 47.2516 52.1987 47.2502 51.5834C47.2502 51.0056 47.3044 50.4459 47.4127 49.9042C47.4688 49.6239 47.5442 49.3484 47.6389 49.0778C47.7617 48.727 47.517 48.3334 47.1454 48.3334H27.7502C26.8113 48.3334 26.0349 48.6497 25.421 49.2824C24.8071 49.915 24.5002 50.682 24.5002 51.5834C24.5002 52.5223 24.8071 53.2987 25.421 53.9125C26.0349 54.5264 26.8113 54.8334 27.7502 54.8334Z" fill="url(#paint0_linear_1_257)"/>
<path d="M27.7502 59.1667C25.6558 59.1667 23.8683 58.4264 22.3877 56.9459C20.9071 55.4653 20.1669 53.6778 20.1669 51.5834V23.4167C20.1669 21.3223 20.9071 19.5348 22.3877 18.0542C23.8683 16.5737 25.6558 15.8334 27.7502 15.8334H53.3335C54.162 15.8334 54.8335 16.5049 54.8335 17.3334V47.8334C54.8335 48.1095 54.6085 48.3289 54.3351 48.3674C53.645 48.4646 53.0442 48.7696 52.5325 49.2824C51.9013 49.915 51.585 50.682 51.5835 51.5834C51.5821 52.4847 51.8984 53.2524 52.5325 53.8865C53.0458 54.3998 53.6461 54.7044 54.3334 54.8003C54.6075 54.8386 54.8335 55.0582 54.8335 55.335V58.6667C54.8335 58.9428 54.6097 59.1667 54.3335 59.1667H27.7502ZM28.8335 41.8334C28.8335 43.03 29.8036 44 31.0002 44V44C32.1968 44 33.1669 43.03 33.1669 41.8334V22.3334C33.1669 21.1368 32.1968 20.1667 31.0002 20.1667V20.1667C29.8036 20.1667 28.8335 21.1368 28.8335 22.3334V41.8334ZM27.7502 54.8334H47.1961C47.5551 54.8334 47.7982 54.4655 47.6827 54.1256C47.589 53.8498 47.5084 53.5715 47.4409 53.2907C47.3152 52.7678 47.2516 52.1987 47.2502 51.5834C47.2502 51.0056 47.3044 50.4459 47.4127 49.9042C47.4688 49.6239 47.5442 49.3484 47.6389 49.0778C47.7617 48.727 47.517 48.3334 47.1454 48.3334H27.7502C26.8113 48.3334 26.0349 48.6497 25.421 49.2824C24.8071 49.915 24.5002 50.682 24.5002 51.5834C24.5002 52.5223 24.8071 53.2987 25.421 53.9125C26.0349 54.5264 26.8113 54.8334 27.7502 54.8334Z" fill="url(#paint1_linear_1_257)"/>
<defs>
<linearGradient id="paint0_linear_1_257" x1="37.5002" y1="15.8334" x2="37.5002" y2="59.1667" gradientUnits="userSpaceOnUse">
<stop stop-color="#FA5F08"/>
<stop offset="1" stop-color="#E65706"/>
</linearGradient>
<linearGradient id="paint1_linear_1_257" x1="37.5002" y1="15.8334" x2="37.5002" y2="59.1667" gradientUnits="userSpaceOnUse">
<stop stop-color="#F59504"/>
<stop offset="1" stop-color="#F56C04"/>
</linearGradient>
</defs>
</svg>
