<svg width="20" height="23" viewBox="0 0 20 23" fill="none" xmlns="http://www.w3.org/2000/svg">
<path fill-rule="evenodd" clip-rule="evenodd" d="M10 0.5C4.477 0.5 0 4.977 0 10.5C0 16.023 4.477 20.5 10 20.5C15.523 20.5 20 16.023 20 10.5C20 4.977 15.523 0.5 10 0.5ZM6.5 8C6.5 7.54037 6.59053 7.08525 6.76642 6.66061C6.94231 6.23597 7.20012 5.85013 7.52513 5.52513C7.85013 5.20012 8.23597 4.94231 8.66061 4.76642C9.08525 4.59053 9.54037 4.5 10 4.5C10.4596 4.5 10.9148 4.59053 11.3394 4.76642C11.764 4.94231 12.1499 5.20012 12.4749 5.52513C12.7999 5.85013 13.0577 6.23597 13.2336 6.66061C13.4095 7.08525 13.5 7.54037 13.5 8C13.5 8.92826 13.1313 9.8185 12.4749 10.4749C11.8185 11.1313 10.9283 11.5 10 11.5C9.07174 11.5 8.1815 11.1313 7.52513 10.4749C6.86875 9.8185 6.5 8.92826 6.5 8ZM16.258 15.484C15.5092 16.4253 14.5575 17.1855 13.4739 17.7077C12.3904 18.2299 11.2029 18.5008 10 18.5C8.79715 18.5008 7.60965 18.2299 6.52607 17.7077C5.44249 17.1855 4.49081 16.4253 3.742 15.484C5.363 14.321 7.575 13.5 10 13.5C12.425 13.5 14.637 14.321 16.258 15.484Z" fill="#F56C04"/>
</svg>
