<svg width="20" height="21" viewBox="0 0 20 21" fill="none" xmlns="http://www.w3.org/2000/svg">
<path d="M18.4863 10.3633L10.4414 2.32423C10.3834 2.26619 10.3146 2.22015 10.2389 2.18873C10.1632 2.15732 10.082 2.14114 9.99997 2.14114C9.91797 2.14114 9.83678 2.15732 9.76103 2.18873C9.68529 2.22015 9.61649 2.26619 9.55856 2.32423L1.51364 10.3633C1.27927 10.5977 1.14645 10.916 1.14645 11.2481C1.14645 11.9375 1.707 12.4981 2.39645 12.4981H3.24411V18.2344C3.24411 18.5801 3.52341 18.8594 3.86911 18.8594H8.74997V14.4844H10.9375V18.8594H16.1308C16.4765 18.8594 16.7558 18.5801 16.7558 18.2344V12.4981H17.6035C17.9355 12.4981 18.2539 12.3672 18.4883 12.1309C18.9746 11.6426 18.9746 10.8516 18.4863 10.3633Z" fill="#F56C04"/>
</svg>
