<svg width="20" height="21" viewBox="0 0 20 21" fill="none" xmlns="http://www.w3.org/2000/svg">
<path d="M18.4863 10.3633L10.9395 2.8203L10.4336 2.31444C10.3183 2.19994 10.1625 2.13568 10 2.13568C9.83755 2.13568 9.68168 2.19994 9.56642 2.31444L1.51368 10.3633C1.39558 10.4809 1.30224 10.621 1.23918 10.7753C1.17611 10.9296 1.1446 11.095 1.1465 11.2617C1.15431 11.9492 1.72657 12.498 2.41407 12.498H3.24415V18.8594H16.7559V12.498H17.6035C17.9375 12.498 18.252 12.3672 18.4883 12.1308C18.6047 12.0149 18.6969 11.8769 18.7596 11.7251C18.8222 11.5732 18.8542 11.4104 18.8535 11.2461C18.8535 10.9141 18.7227 10.5996 18.4863 10.3633ZM11.0938 17.4531H8.90626V13.4687H11.0938V17.4531ZM15.3496 11.0918V17.4531H12.3438V13C12.3438 12.5683 11.9942 12.2187 11.5625 12.2187H8.43751C8.00587 12.2187 7.65626 12.5683 7.65626 13V17.4531H4.6504V11.0918H2.7754L10.002 3.87108L10.4531 4.32225L17.2266 11.0918H15.3496Z" fill="#A39B97"/>
</svg>
